<svg xmlns="http://www.w3.org/2000/svg" data-theme="light" data-generator="archify 2.11.0" viewBox="0 0 1000 360" role="img" aria-labelledby="feed-title feed-desc">
  <title id="feed-title">피드 서빙 책임 경계</title>
  <desc id="feed-desc">요청을 스냅샷으로 응답하고, 비어 있으면 검색 소스의 후보를 중복 제거, 점수화, 재정렬해 보충하는 흐름</desc>
  <metadata>Generated from design/archify/feed-serving.architecture.json with Archify 2.11.0, simplified for A4 output.</metadata>
  <defs>
    <marker id="arrow" markerWidth="10" markerHeight="8" refX="9" refY="4" orient="auto">
      <path d="M0 0L10 4L0 8Z" fill="#416f00"/>
    </marker>
    <style>
      text { font-family: Pretendard, sans-serif; }
      .lane { fill: #416f00; font-size: 14px; font-weight: 700; letter-spacing: .04em; }
      .node { fill: #ffffff; stroke: #aeb9aa; stroke-width: 2; }
      .node-accent { fill: #edf7dc; stroke: #76b900; stroke-width: 2; }
      .node-data { fill: #e4f5f3; stroke: #007b83; stroke-width: 2; }
      .title { fill: #11150f; font-size: 18px; font-weight: 700; }
      .detail { fill: #4f594d; font-size: 14px; font-weight: 500; }
      .flow { fill: none; stroke: #416f00; stroke-width: 2.5; marker-end: url(#arrow); }
      .hint { fill: #416f00; font-size: 14px; font-weight: 700; }
    </style>
  </defs>

  <rect width="1000" height="360" rx="2" fill="#f8faf6"/>
  <text class="lane" x="36" y="28">요청·스냅샷 경로</text>

  <path class="flow" d="M222 89H282"/>
  <path class="flow" d="M472 89H532"/>
  <path class="flow" d="M722 89H782"/>
  <path class="flow" d="M377 134V174H127V219"/>
  <path class="flow" d="M222 269H282"/>
  <path class="flow" d="M472 269H532"/>
  <path class="flow" d="M722 269H782"/>
  <path class="flow" d="M877 219V174H627V134"/>

  <rect class="node" x="32" y="44" width="190" height="90" rx="2"/>
  <text class="title" x="127" y="82" text-anchor="middle">Feed API</text>
  <text class="detail" x="127" y="108" text-anchor="middle">요청 문맥</text>

  <rect class="node-accent" x="282" y="44" width="190" height="90" rx="2"/>
  <text class="title" x="377" y="82" text-anchor="middle">Orchestrator</text>
  <text class="detail" x="377" y="108" text-anchor="middle">조회·보충·우회 결정</text>

  <rect class="node-data" x="532" y="44" width="190" height="90" rx="2"/>
  <text class="title" x="627" y="82" text-anchor="middle">Snapshot</text>
  <text class="detail" x="627" y="108" text-anchor="middle">Hit · Empty · Unavailable</text>

  <rect class="node" x="782" y="44" width="186" height="90" rx="2"/>
  <text class="title" x="875" y="82" text-anchor="middle">Feed response</text>
  <text class="detail" x="875" y="108" text-anchor="middle">스냅샷 결과 반환</text>

  <text class="lane" x="36" y="202">Empty일 때 후보 보충</text>
  <text class="hint" x="398" y="164">Empty</text>
  <text class="hint" x="677" y="164">새 Snapshot</text>

  <rect class="node" x="32" y="219" width="190" height="100" rx="2"/>
  <text class="title" x="127" y="259" text-anchor="middle">검색 소스 9개</text>
  <text class="detail" x="127" y="286" text-anchor="middle">타임아웃·실패 처리</text>

  <rect class="node-accent" x="282" y="219" width="190" height="100" rx="2"/>
  <text class="title" x="377" y="259" text-anchor="middle">FPR</text>
  <text class="detail" x="377" y="286" text-anchor="middle">중복·노출 이력 제거</text>

  <rect class="node-data" x="532" y="219" width="190" height="100" rx="2"/>
  <text class="title" x="627" y="259" text-anchor="middle">SPR</text>
  <text class="detail" x="627" y="286" text-anchor="middle">후보 점수화</text>

  <rect class="node-accent" x="782" y="219" width="186" height="100" rx="2"/>
  <text class="title" x="875" y="259" text-anchor="middle">Re-Rank</text>
  <text class="detail" x="875" y="286" text-anchor="middle">최종 순서 재정렬</text>
</svg>
